<svg width="375" height="375" viewBox="0 0 375 375" fill="none" xmlns="http://www.w3.org/2000/svg">
<rect width="375" height="375" fill="#F5F5F5"/>
<circle cx="187.5" cy="187.5" r="182.5" fill="white" stroke="black" stroke-width="10"/>
<mask id="path-2-inside-1_0_1" fill="white">
<path fill-rule="evenodd" clip-rule="evenodd" d="M105 105H270V129H105V105ZM105 176H270V199H105V176ZM270 246H105V270H270V246ZM248 309.5C248 319.165 240.165 327 230.5 327C220.835 327 213 319.165 213 309.5C213 299.835 220.835 292 230.5 292C240.165 292 248 299.835 248 309.5ZM141.5 327C151.165 327 159 319.165 159 309.5C159 299.835 151.165 292 141.5 292C131.835 292 124 299.835 124 309.5C124 319.165 131.835 327 141.5 327Z"/>
</mask>
<path fill-rule="evenodd" clip-rule="evenodd" d="M105 105H270V129H105V105ZM105 176H270V199H105V176ZM270 246H105V270H270V246ZM248 309.5C248 319.165 240.165 327 230.5 327C220.835 327 213 319.165 213 309.5C213 299.835 220.835 292 230.5 292C240.165 292 248 299.835 248 309.5ZM141.5 327C151.165 327 159 319.165 159 309.5C159 299.835 151.165 292 141.5 292C131.835 292 124 299.835 124 309.5C124 319.165 131.835 327 141.5 327Z" fill="black"/>
<path d="M270 105H271V104H270V105ZM105 105V104H104V105H105ZM270 129V130H271V129H270ZM105 129H104V130H105V129ZM270 176H271V175H270V176ZM105 176V175H104V176H105ZM270 199V200H271V199H270ZM105 199H104V200H105V199ZM105 246V245H104V246H105ZM270 246H271V245H270V246ZM105 270H104V271H105V270ZM270 270V271H271V270H270ZM270 104H105V106H270V104ZM271 129V105H269V129H271ZM105 130H270V128H105V130ZM104 105V129H106V105H104ZM270 175H105V177H270V175ZM271 199V176H269V199H271ZM105 200H270V198H105V200ZM104 176V199H106V176H104ZM105 247H270V245H105V247ZM106 270V246H104V270H106ZM270 269H105V271H270V269ZM269 246V270H271V246H269ZM230.5 328C240.717 328 249 319.717 249 309.5H247C247 318.613 239.613 326 230.5 326V328ZM212 309.5C212 319.717 220.283 328 230.5 328V326C221.387 326 214 318.613 214 309.5H212ZM230.5 291C220.283 291 212 299.283 212 309.5H214C214 300.387 221.387 293 230.5 293V291ZM249 309.5C249 299.283 240.717 291 230.5 291V293C239.613 293 247 300.387 247 309.5H249ZM158 309.5C158 318.613 150.613 326 141.5 326V328C151.717 328 160 319.717 160 309.5H158ZM141.5 293C150.613 293 158 300.387 158 309.5H160C160 299.283 151.717 291 141.5 291V293ZM125 309.5C125 300.387 132.387 293 141.5 293V291C131.283 291 123 299.283 123 309.5H125ZM141.5 326C132.387 326 125 318.613 125 309.5H123C123 319.717 131.283 328 141.5 328V326Z" fill="black" mask="url(#path-2-inside-1_0_1)"/>
</svg>
